<svg width="1440" height="885" viewBox="0 0 1440 885" fill="none" xmlns="http://www.w3.org/2000/svg">
<g clip-path="url(#clip0_3756_13088)">
<path d="M871.5 251.5H1029V364C1029 401.279 998.779 431.5 961.5 431.5H871.5V251.5Z" stroke="white"/>
<path d="M1186.5 251.5H1029V139C1029 101.721 1059.22 71.5 1096.5 71.5H1186.5V251.5Z" stroke="white"/>
<path d="M1186.5 71.5L1186.5 -86L1299 -86C1336.28 -86 1366.5 -55.7792 1366.5 -18.5L1366.5 71.5L1186.5 71.5Z" stroke="white"/>
<path d="M1546.5 71.5L1546.5 229L1434 229C1396.72 229 1366.5 198.779 1366.5 161.5L1366.5 71.5L1546.5 71.5Z" stroke="white"/>
<path d="M1389 724L1389 881.5L1501.5 881.5C1538.78 881.5 1569 851.279 1569 814L1569 724L1389 724Z" stroke="white"/>
<path d="M871.5 791.5H1029V679C1029 641.721 998.779 611.5 961.5 611.5H871.5V791.5Z" stroke="white"/>
<path d="M714 251.5H871.5V139C871.5 101.721 841.279 71.5 804 71.5H714V251.5Z" stroke="white"/>
<path d="M714 791.5H871.5V904C871.5 941.279 841.279 971.5 804 971.5H714V791.5Z" stroke="white"/>
<path d="M714 -86L714 71.5L601.5 71.5C564.221 71.5 534 41.2792 534 4L534 -86L714 -86Z" stroke="white"/>
<path d="M871.5 431.5H781.5C744.221 431.5 714 461.721 714 499V544C714 581.279 744.221 611.5 781.5 611.5H871.5V431.5Z" stroke="white"/>
</g>
<defs>
<clipPath id="clip0_3756_13088">
<rect width="1440" height="885" fill="white"/>
</clipPath>
</defs>
</svg>
