<svg xmlns="http://www.w3.org/2000/svg" enable-background="new 0 0 30 30" viewBox="0 0 30 30" id="engagement-ring" fill="white"><path d="M18.4003906,3.1796875c-4.0401611,0-7.4453125,2.7175293-8.3644409,6.5622559
	C5.9759521,10.4855957,3,14.0004883,3,18.2099609c0,4.7480469,3.8671875,8.6103516,8.6201172,8.6103516
	c3.0751953,0,5.9345703-1.6572266,7.4619141-4.3242188c0.2753906-0.4794922,0.109375-1.0898438-0.3701172-1.3642578
	c-0.4775391-0.2744141-1.0898438-0.1103516-1.3642578,0.3701172c-1.1728516,2.046875-3.3681641,3.3183594-5.7275391,3.3183594
	C7.9697266,24.8203125,5,21.8544922,5,18.2099609c0-3.4277344,2.5683594-6.2587891,6.0048828-6.5878906
	c0.1992188-0.0253906,0.4072266-0.0322266,0.6152344-0.0322266c3.6386719,0,6.5996094,2.9697266,6.5996094,6.6201172
	c0,0.0610352-0.012085,0.1147461-0.0136719,0.1749268c-2.8481445-0.0821533-5.3045044-1.9233398-6.1435547-4.6534424
	c-0.1630859-0.5273438-0.7197266-0.8261719-1.25-0.6621094c-0.5283203,0.1630859-0.8242188,0.7216797-0.6621094,1.25
	c1.1191406,3.6376953,4.4345703,6.0810547,8.25,6.0810547c0.2910156,0,0.5703125-0.0136719,0.8222656-0.0439453
	C23.65625,19.9423828,27,16.2636719,27,11.7998047C27,7.046875,23.1425781,3.1796875,18.4003906,3.1796875z M20.2163086,18.142334
	c-0.0354614-4.5419922-3.5927124-8.2492676-8.0643921-8.5253906c0.8944702-2.6296387,3.3599854-4.4372559,6.2484741-4.4372559
	C22.0390625,5.1796875,25,8.1494141,25,11.7998047C25,14.8084717,23.0209351,17.3508301,20.2163086,18.142334z"></path></svg>