<svg xmlns="http://www.w3.org/2000/svg" viewBox="0 0 64 64" id="media" fill="#FBD85D"><path d="m56,8.5H8c-3.31,0-6,2.69-6,6v28c0,2.43414,1.45642,4.52863,3.54309,5.46741-1.59631,2.12781-2.85565,7.29657,1.12695,7.53259-.00006,0,50.65997,0,50.65997,0,3.94183-.23657,2.75073-5.41479,1.1275-7.53162,2.08569-.94055,3.54248-3.03467,3.54248-5.46838V14.5c0-3.31-2.69-6-6-6Zm-39,3h2c1.31329.02509,1.31384,1.97491,0,2h-2c-1.31305-.02502-1.31396-1.97491,0-2Zm-5,0h2c1.31329.02509,1.31384,1.97491,0,2h-2c-1.31305-.02502-1.31396-1.97491,0-2Zm-5,0h2c1.31329.02509,1.31384,1.97491,0,2h-2c-1.31305-.02502-1.31396-1.97491,0-2Zm3.90997,33.77997c1.00958.29492,2.17041.29492,3.17999,0-.43964,2.08234-2.74146,2.07971-3.17999,0Zm11.27435,8.22003h-7.85437c-.45996,0-.82996-.37-.82996-.83002-.00012-2.74121,1.56006-5.24237,3.95996-6.46002,1.32135,2.58698,5.2887,2.5683,6.58002,0,.04724.02423.08875.0564.13531.08154-1.47955,1.93372-2.60632,4.68323-1.99097,7.2085Zm2.92963-14.45178c-1.24792,5.02692-8.62964,4.30878-8.85394-.89838-.1828-4.4588,5.72363-6.36908,8.20013-2.68768-.10376,1.24115.16418,2.50781.65381,3.58606Zm-2.38599,5.14465c-.12885.13959-.22815.31836-.258.51709-.14996.84003-.87,1.46002-1.71997,1.46002-.85004,0-1.57001-.62-1.72003-1.46002-.02979-.19873-.12915-.37756-.258-.51715,1.23663.40631,2.71423.40637,3.95599.00006Zm-5.638-.82288c.29004.19.59003.37.90002.51001-.84735.16766-1.63306.64008-2.34003,1.07001-.12-.05005-.23999-.10004-.35999-.14001.69-.35999,1.29999-.85004,1.79999-1.44Zm18.18738-.31042c-.56232-.211-1.22693.18304-1.31396.77637-.36768,2.19287-3.55945,2.1925-3.92676-.00006-.55658-2.02087-3.50104.31427-4.41528.97949-.65619-.375-1.36041-.80939-2.13135-.93536,1.27057-.58954,2.30511-1.58698,2.96899-2.81268,2.7038,3.19153,8.37854,3.19098,11.08209,0,.66388,1.22565,1.69836,2.22314,2.96893,2.81268-.771.12604-1.47504.5603-2.13135.93536-.9046-.75079-1.94611-1.35486-3.10132-1.7558Zm4.26251-7.59741c2.47852-3.68134,8.38226-1.7713,8.20013,2.68793-.22382,5.20764-7.60822,5.92395-8.85394.89813.48962-1.078.75763-2.34515.65381-3.58606Zm9.17017,9.34784c-.12.03998-.23999.08997-.35999.14001-.70679-.42987-1.49274-.9024-2.34003-1.07001.31-.14001.60999-.32001.90002-.51001.5.58997,1.10999,1.08002,1.79999,1.44Zm-3.48199-.61719c-.12885.13959-.22821.31842-.258.51715-.15002.84003-.87,1.46002-1.72003,1.46002-.84998,0-1.57001-.62-1.71997-1.46002-.02985-.19873-.12915-.3775-.258-.51709,1.24176.40631,2.71936.40625,3.95599-.00006Zm4.44202,9.30719h-7.85431c.61493-2.52625-.51105-5.27356-1.99103-7.2085.04657-.02515.08807-.05731.13531-.08154,1.29199,2.56909,5.25885,2.58624,6.58002,0,2.39996,1.21765,3.96008,3.71881,3.95996,6.46002,0,.46002-.37.83002-.82996.83002Zm3.29999-7.91003c-.24969,1.62781-2.69061,1.62732-2.94-.00006-.02002-.10992-.06-.21991-.12-.30994,1.00958.29492,2.17041.29492,3.17999,0-.06.09003-.10004.20001-.12.31Zm7.02997-3.08997c0,1.87292-1.29102,3.43176-3.02838,3.86749-.78223-.66223-1.67566-1.20642-2.68158-1.5575,6.97491-3.97546,1.45367-14.23126-5.73004-10.54004-1.95776-3.06476-6.88098-3.70435-9.55579-1.17761-2.49756-6.24548-11.51312-6.24194-14.00842,0-2.67517-2.52704-7.59796-1.88678-9.55579,1.17761-7.19025-3.69189-12.70099,6.57037-5.73004,10.54004-1.00592.35107-1.89929.89526-2.68152,1.5575-1.7373-.43573-3.02844-1.99457-3.02844-3.86749v-25h56v25Z"></path><path d="M26.8042 27.51367c.77704 1.0553 2.38135-.11621 1.61816-1.17584 0 .00006-1.76318-2.42767-1.76318-2.42767-.77325-1.05438-2.38239.11377-1.6181 1.17584-.00006-.00006 1.76312 2.42767 1.76312 2.42767zM32 26.5c.55225 0 1-.44727 1-1v-3c0-.55273-.44775-1-1-1s-1 .44727-1 1v3c0 .55273.44775 1 1 1zM36.38574 27.92578c.30957 0 .61426-.14258.81006-.41211l1.76318-2.42773c.32471-.44727.22559-1.07227-.22168-1.39746-.4458-.32422-1.0708-.22461-1.39648.22168l-1.76318 2.42773c-.4892.63031.02039 1.61188.80811 1.58789z" ></path></svg>