<svg xmlns="http://www.w3.org/2000/svg" width="64" height="64" id="promotion"><g stroke="#0e7bff" transform="translate(-.014 -988.363)"><path style="isolation:auto;mix-blend-mode:normal" fill="#dae7fc" stroke="none" d="m6.274 1028.46 1.931-.517 3.236 12.074-1.932.518z" color="#000" overflow="visible"></path><path style="isolation:auto;mix-blend-mode:normal" fill="#6ca6fd" stroke="none" d="M-264.125 991.525h2v2.031h-2z" color="#000" overflow="visible" transform="rotate(-15)"></path><rect width="6" height="5" x="-262.125" y="990.041" fill="#dae7fc" style="isolation:auto;mix-blend-mode:normal" stroke="none" color="#000" overflow="visible" rx="0" ry="0" transform="rotate(-15)"></rect><path style="isolation:auto;mix-blend-mode:normal" fill="#f4f7f8" stroke="none" d="m8.843 1022.596 9.59-6.71 3.365 12.556-11.66-1.016z" color="#000" overflow="visible"></path><rect width="2" height="15" x="-245.125" y="985.041" fill="#6ca6fd" style="isolation:auto;mix-blend-mode:normal" stroke="none" color="#000" overflow="visible" rx="1" ry="1" transform="rotate(-15)"></rect><rect width="5" height="12" x="30.5" y="1028.862" fill="#f4f7f8" stroke="none" color="#000" style="isolation:auto;mix-blend-mode:normal" overflow="visible" rx="0" ry="0"></rect><rect width="5" height="19" x="38.5" y="1021.862" fill="#f4f7f8" stroke="none" color="#000" style="isolation:auto;mix-blend-mode:normal" overflow="visible" rx="0" ry="0"></rect><rect width="5" height="27" x="46.5" y="1013.862" fill="#f4f7f8" stroke="none" color="#000" style="isolation:auto;mix-blend-mode:normal" overflow="visible" rx="0" ry="0"></rect><rect width="5" height="35" x="54.5" y="1005.862" fill="#f4f7f8" stroke="none" color="#000" style="isolation:auto;mix-blend-mode:normal" overflow="visible" rx="0" ry="0"></rect><path style="isolation:auto;mix-blend-mode:normal" fill="#dae7fc" stroke="none" d="M35.5 1028.862v12h-5zm8-7v19h-5zm8-8v27h-5zm8-8v35h-5z" color="#000" overflow="visible"></path><rect style="isolation:auto;mix-blend-mode:normal" width="5" height="12" x="30.5" y="1028.862" fill="none" stroke-linecap="round" stroke-linejoin="round" color="#000" overflow="visible" rx="0" ry="0"></rect><path style="isolation:auto;mix-blend-mode:normal" fill="none" stroke-linecap="round" stroke-linejoin="round" d="M17.013 1028.244c.048.1.36.944.389 1.034.284.87-.292 1.254-.824 1.16l-2.556-.318c-.51-.064-1.023-.505-1.15-.99l-.37-1.406" color="#000" overflow="visible"></path><path style="isolation:auto;mix-blend-mode:normal" fill="#6ca6fd" stroke="none" d="m-256.123 993.05-.002 1.99h-6l.145-1.744z" color="#000" overflow="visible" transform="rotate(-15)"></path><rect style="isolation:auto;mix-blend-mode:normal" width="6" height="5" x="-262.125" y="990.041" fill="none" stroke-linecap="round" stroke-linejoin="round" color="#000" overflow="visible" rx="0" ry="0" transform="rotate(-15)"></rect><path style="isolation:auto;mix-blend-mode:normal" fill="#dae7fc" stroke="none" d="m19.695 1020.594.42 1.57.842 3.139.84 3.14-11.66-1.017z" color="#000" overflow="visible"></path><path style="isolation:auto;mix-blend-mode:normal" fill="none" stroke-linecap="round" stroke-linejoin="round" d="m8.843 1022.596 9.59-6.71 3.365 12.556-11.66-1.016z" color="#000" overflow="visible"></path><rect style="isolation:auto;mix-blend-mode:normal" width="2" height="15" x="-245.125" y="985.041" fill="none" stroke-linecap="round" stroke-linejoin="round" color="#000" overflow="visible" rx="1" ry="1" transform="rotate(-15)"></rect><path style="isolation:auto;mix-blend-mode:normal" fill="#6ca6fd" stroke="none" d="m9.823 1033.98 1.618 6.037-.966.259-.966.259-1.618-6.037z" color="#000" overflow="visible"></path><path style="isolation:auto;mix-blend-mode:normal" fill="none" stroke-linecap="round" stroke-linejoin="round" d="m6.274 1028.46 1.931-.517 3.236 12.074-1.932.518z" color="#000" overflow="visible"></path><path fill="none" stroke-linecap="round" style="isolation:auto;mix-blend-mode:normal" stroke-linejoin="round" d="M-264.125 991.525h2v2.031h-2z" color="#000" overflow="visible" transform="rotate(-15)"></path><path fill="none" stroke-linecap="round" stroke-linejoin="round" d="m24.955 1020.878 3.61-.967m-3.214 2.927 3.417 1.16m-4.451-5.02 2.38-2.707"></path><rect stroke-linejoin="round" style="isolation:auto;mix-blend-mode:normal" width="5" height="19" x="38.5" y="1021.862" fill="none" stroke-linecap="round" color="#000" overflow="visible" rx="0" ry="0"></rect><rect style="isolation:auto;mix-blend-mode:normal" width="5" height="27" x="46.5" y="1013.862" fill="none" stroke-linecap="round" stroke-linejoin="round" color="#000" overflow="visible" rx="0" ry="0"></rect><rect stroke-linejoin="round" style="isolation:auto;mix-blend-mode:normal" width="5" height="35" x="54.5" y="1005.862" fill="none" stroke-linecap="round" color="#000" overflow="visible" rx="0" ry="0"></rect><path fill="none" stroke-linecap="round" stroke-linejoin="round" d="M17.507 1040.837h44m-31.507-15h4.5v-7h8v-8h8v-9h8.6"></path><path fill="none" stroke-linecap="round" stroke-linejoin="round" d="m57.53 999.87 1.97 1.993-1.97 1.994"></path><path style="isolation:auto;mix-blend-mode:normal" fill="none" stroke-linecap="round" stroke-linejoin="round" d="m10.652 1023.697.796-.557m1.33-.93.658-.461m1.364-.955 4.19-2.932" color="#000" overflow="visible"></path></g></svg>