<svg xmlns="http://www.w3.org/2000/svg" width="64pt" height="64pt" viewBox="0 0 64 64" style="isolation:isolate" id="visible" fill="#f55e55"><defs><clipPath id="a"><rect width="64" height="64"></rect></clipPath></defs><g clip-path="url(#a)"><path fill-rule="evenodd" d=" M 61.56 33.818 C 56.474 42.521 45.056 49.591 32 49.591 C 18.944 49.591 7.526 42.521 2.44 33.818 C 1.853 32.815 1.853 31.185 2.44 30.182 C 7.526 21.479 18.944 14.409 32 14.409 C 45.056 14.409 56.474 21.479 61.56 30.182 C 62.147 31.185 62.147 32.815 61.56 33.818 Z  M 19.207 32 C 19.207 24.94 24.94 19.207 32 19.207 C 39.06 19.207 44.793 24.94 44.793 32 C 44.793 39.06 39.06 44.793 32 44.793 C 24.94 44.793 19.207 39.06 19.207 32 Z "></path><path d=" M 21.7 32 C 21.7 26.315 26.315 21.7 32 21.7 C 37.685 21.7 42.3 26.315 42.3 32 C 42.3 37.685 37.685 42.3 32 42.3 C 26.315 42.3 21.7 37.685 21.7 32 Z "></path></g></svg>